<?xml version="1.0" encoding="UTF-8"?>
<svg id="Capa_1" data-name="Capa 1" xmlns="http://www.w3.org/2000/svg" viewBox="0 0 1984.25 432.48">
  <defs>
    <style>
      .cls-1 {
        fill: #8fcdc1;
      }

      .cls-2 {
        fill: #0c334e;
      }
    </style>
  </defs>
  <g>
    <path class="cls-2" d="M372.05,382.63v18.73h28.7v5.87h-28.7v18.33h31.92v5.87h-38.27v-54.68h38.27v5.87h-31.92Z"/>
    <path class="cls-2" d="M455.35,391.79h-6.35c-1.21-6.51-5.79-10.53-14.71-10.53-8.04,0-13.27,3.62-13.27,9.81,0,4.82,3.46,7.56,9.97,8.84l8.93,1.69c9.81,1.93,15.36,6.35,15.36,14.39,0,9.97-8.2,16.4-20.5,16.4-13.11,0-21.63-6.67-22.84-18.49h6.27c1.29,8.2,7.16,12.78,16.88,12.78,8.36,0,13.67-3.78,13.67-9.97,0-4.34-2.97-7.72-9.89-8.93l-10.21-2.01c-9.73-1.85-14.39-6.84-14.39-14.31,0-9.57,7.88-15.68,19.62-15.68,10.77,0,20.1,4.74,21.47,16Z"/>
    <path class="cls-2" d="M506.64,382.63h-20.18v48.81h-6.35v-48.81h-20.1v-5.87h46.63v5.87Z"/>
    <path class="cls-2" d="M561.14,408.04c0,14.55-9.33,24.36-23.4,24.36s-23.4-9.81-23.4-24.36v-31.28h6.35v31.28c0,10.69,6.75,18.41,17.05,18.41s17.05-7.72,17.05-18.41v-31.28h6.35v31.28Z"/>
    <path class="cls-2" d="M623.37,403.69c0,16.24-11.98,27.74-28.86,27.74h-19.22v-54.68h19.22c16.88,0,28.86,11.18,28.86,26.94ZM616.85,403.69c0-12.22-9.33-21.07-22.35-21.07h-12.86v42.94h12.86c13.03,0,22.35-9.09,22.35-21.87Z"/>
    <path class="cls-2" d="M642.33,376.76v54.68h-6.35v-54.68h6.35Z"/>
    <path class="cls-2" d="M711.8,404.09c0,15.76-12.7,28.3-28.46,28.3s-28.46-12.54-28.46-28.3,12.7-28.3,28.46-28.3,28.46,12.54,28.46,28.3ZM705.37,404.09c0-12.38-9.65-22.35-22.03-22.35s-22.03,9.97-22.03,22.35,9.65,22.35,22.03,22.35,22.03-9.97,22.03-22.35Z"/>
    <path class="cls-2" d="M794.2,403.69c0,16.24-11.98,27.74-28.86,27.74h-19.22v-54.68h19.22c16.88,0,28.86,11.18,28.86,26.94ZM787.69,403.69c0-12.22-9.32-21.07-22.35-21.07h-12.86v42.94h12.86c13.03,0,22.35-9.09,22.35-21.87Z"/>
    <path class="cls-2" d="M813.17,382.63v18.73h28.71v5.87h-28.71v18.33h31.92v5.87h-38.27v-54.68h38.27v5.87h-31.92Z"/>
    <path class="cls-2" d="M927.25,403.69c0,16.24-11.98,27.74-28.86,27.74h-19.22v-54.68h19.22c16.88,0,28.86,11.18,28.86,26.94ZM920.74,403.69c0-12.22-9.33-21.07-22.35-21.07h-12.86v42.94h12.86c13.03,0,22.35-9.09,22.35-21.87Z"/>
    <path class="cls-2" d="M946.22,376.76v54.68h-6.35v-54.68h6.35Z"/>
    <path class="cls-2" d="M1001.69,391.79h-6.35c-1.21-6.51-5.79-10.53-14.71-10.53-8.04,0-13.27,3.62-13.27,9.81,0,4.82,3.46,7.56,9.97,8.84l8.93,1.69c9.81,1.93,15.36,6.35,15.36,14.39,0,9.97-8.2,16.4-20.5,16.4-13.11,0-21.63-6.67-22.84-18.49h6.27c1.29,8.2,7.16,12.78,16.88,12.78,8.36,0,13.67-3.78,13.67-9.97,0-4.34-2.97-7.72-9.89-8.93l-10.21-2.01c-9.73-1.85-14.39-6.84-14.39-14.31,0-9.57,7.88-15.68,19.62-15.68,10.77,0,20.1,4.74,21.47,16Z"/>
    <path class="cls-2" d="M1020.26,382.63v18.73h28.7v5.87h-28.7v18.33h31.92v5.87h-38.27v-54.68h38.27v5.87h-31.92Z"/>
    <path class="cls-2" d="M1111.19,376.76v54.68h-5.31l-34.98-43.1v43.1h-6.35v-54.68h5.15l35.14,43.66v-43.66h6.35ZM1079.59,367.83h-4.99c0-8.2,7.4-9.73,11.9-6.91l3.38,2.17c3.22,2.17,5.55.56,5.55-2.33h4.99c0,8.12-7.16,9.97-11.9,6.91l-3.46-2.25c-2.97-1.93-5.47-.56-5.47,2.41Z"/>
    <path class="cls-2" d="M1180.73,404.09c0,15.76-12.7,28.3-28.46,28.3s-28.46-12.54-28.46-28.3,12.7-28.3,28.46-28.3,28.46,12.54,28.46,28.3ZM1174.3,404.09c0-12.38-9.65-22.35-22.03-22.35s-22.03,9.97-22.03,22.35,9.65,22.35,22.03,22.35,22.03-9.97,22.03-22.35Z"/>
    <path class="cls-2" d="M1259.43,411.89h6.59c-2.57,12.3-12.63,20.58-26.05,20.58-15.76,0-28.46-12.22-28.46-28.38s12.7-28.3,28.46-28.3c13.43,0,23.48,8.2,26.05,20.5h-6.59c-2.25-8.93-9.49-14.55-19.46-14.55-12.38,0-22.03,9.57-22.03,22.35s9.65,22.43,22.03,22.43c9.97,0,17.21-5.79,19.46-14.63Z"/>
    <path class="cls-2" d="M1298.9,411.89h-13.91v19.54h-6.35v-54.68h20.66c12.3,0,20.9,6.75,20.9,17.53,0,8.68-5.55,14.79-14.07,16.8l16.56,20.34h-7.88l-15.92-19.54ZM1284.99,406.02h14.15c8.52,0,14.79-4.42,14.79-11.74s-6.27-11.66-14.79-11.66h-14.15v23.4Z"/>
    <path class="cls-2" d="M1338.54,382.63v18.73h28.7v5.87h-28.7v18.33h31.92v5.87h-38.27v-54.68h38.27v5.87h-31.92Z"/>
    <path class="cls-2" d="M1419.5,416.16h-28.22l-6.75,15.28h-6.83l24.68-54.68h6.03l24.69,54.68h-6.84l-6.75-15.28ZM1416.92,410.45l-11.58-26.21-11.58,26.21h23.16Z"/>
    <path class="cls-2" d="M1477.14,382.63h-20.18v48.81h-6.35v-48.81h-20.1v-5.87h46.63v5.87Z"/>
    <path class="cls-2" d="M1492.41,376.76v54.68h-6.35v-54.68h6.35Z"/>
    <path class="cls-2" d="M1558.1,376.76l-25.17,55.08h-5.95l-25.17-55.08h7l21.15,46.55,21.15-46.55h7Z"/>
    <path class="cls-2" d="M1618.55,404.09c0,15.76-12.7,28.3-28.46,28.3s-28.46-12.54-28.46-28.3,12.7-28.3,28.46-28.3,28.46,12.54,28.46,28.3ZM1612.12,404.09c0-12.38-9.65-22.35-22.03-22.35s-22.03,9.97-22.03,22.35,9.65,22.35,22.03,22.35,22.03-9.97,22.03-22.35Z"/>
  </g>
  <g>
    <g>
      <path class="cls-1" d="M1065.83,176.7v115.79h-66.76v-107.55c0-27.19-14.01-37.08-32.96-37.08-11.95,0-22.67,3.71-32.97,15.24.41,3.71.41,7.42.41,11.54v117.85h-66.75v-109.61c0-27.19-14.01-35.02-30.91-35.02-13.18,0-24.72,4.94-34.61,16.89v127.74h-67.17V92.64h67.17v12.36c14.01-11.13,29.26-17.72,51.51-17.72,25.54,0,46.56,8.24,60.99,24.72,19.77-16.89,40.38-24.72,66.34-24.72,51.92,0,85.72,31.73,85.72,89.42Z"/>
      <path class="cls-1" d="M1320.47,92.64v199.85h-66.76v-10.71c-14.84,9.89-32.55,16.07-54.8,16.07-53.98,0-99.31-46.15-99.31-105.49s45.32-105.08,99.31-105.08c22.25,0,39.96,5.77,54.8,15.66v-10.3h66.76ZM1253.71,223.26v-61.81c-12.78-14.01-26.79-17.72-41.21-17.72-27.19,0-47.38,21.01-47.38,48.62s20.19,48.62,47.38,48.62c14.42,0,28.43-3.71,41.21-17.72Z"/>
      <path class="cls-1" d="M1572.63,178.35v114.14h-66.76v-103.43c0-28.43-14.42-41.2-36.67-41.2-11.95,0-24.72,6.18-36.26,18.95v125.68h-67.17V92.64h67.17v13.18c16.07-11.95,33.38-18.54,54.8-18.54,50.27,0,84.89,34.2,84.89,91.07Z"/>
      <path class="cls-1" d="M1782.3,100.36c0,55.26-42.26,94.27-96.96,94.27s-96.96-39.01-96.96-94.27,42.24-94.25,96.96-94.25,96.96,39.01,96.96,94.25ZM1723.8,100.36c0-21.67-17.87-37.92-38.46-37.92s-38.46,16.25-38.46,37.92,17.87,37.93,38.46,37.93,38.46-16.8,38.46-37.93Z"/>
      <path class="cls-1" d="M1891.12,248.81c17.72,0,28.84-4.95,28.84-13.6,0-7-7.82-11.95-21.01-14.01l-40.38-7c-34.2-5.77-58.51-25.14-58.51-60.16,0-42.03,35.85-66.76,89.01-66.76,47.39,0,90.25,16.07,93.13,68.82h-58.93c-1.24-14.83-15.66-21.43-34.2-21.43-17.3,0-25.13,6.19-25.13,13.6,0,7.01,4.94,13.19,21.01,16.07l37.08,6.18c37.09,7.01,62.22,25.14,62.22,60.58,0,46.15-41.2,66.76-93.54,66.76s-93.95-21.01-98.49-74.18l59.34.42c2.88,17.3,18.54,24.72,39.55,24.72Z"/>
    </g>
    <g>
      <path class="cls-1" d="M220.88,0v292.57h-66.76v-9.9c-14.84,9.48-32.55,15.25-54.81,15.25C45.33,297.93,0,252.6,0,192.84s45.33-104.66,99.31-104.66c22.25,0,39.97,5.77,54.81,15.65V0h66.76ZM154.12,224.17v-61.81c-12.78-14.02-26.79-17.72-41.21-17.72-27.19,0-47.39,21.01-47.39,48.21s20.19,49.04,47.39,49.04c14.42,0,28.43-3.72,41.21-17.72Z"/>
      <path class="cls-1" d="M475.1,192.84c0,61.82-45.33,105.08-109.61,105.08s-110.02-43.27-110.02-105.08,45.74-105.49,110.02-105.49,109.61,44.09,109.61,105.49ZM412.46,192.84c0-28.84-19.36-49.45-46.98-49.45s-47.39,20.6-47.39,49.45,19.36,49.45,47.39,49.45,46.98-20.18,46.98-49.45Z"/>
      <path class="cls-1" d="M595.42,248.89c17.72,0,28.84-4.94,28.84-13.6,0-7-7.82-11.94-21.01-14l-40.38-7.01c-34.2-5.77-58.52-25.13-58.52-60.17,0-42.03,35.85-66.76,89.01-66.76,47.39,0,90.25,16.08,93.13,68.83h-58.93c-1.24-14.84-15.66-21.44-34.2-21.44-17.3,0-25.13,6.19-25.13,13.6,0,7.01,4.94,13.19,21.01,16.08l37.08,6.18c37.09,7,62.23,25.13,62.23,60.57,0,46.15-41.21,66.76-93.54,66.76s-93.95-21.01-98.49-74.18l59.35.42c2.88,17.3,18.54,24.72,39.56,24.72Z"/>
    </g>
  </g>
</svg>